<svg width="26" height="26" viewBox="0 0 26 26" fill="none" xmlns="http://www.w3.org/2000/svg">
<circle cx="13" cy="13" r="13" fill="#FFDC5D"/>
<path fill-rule="evenodd" clip-rule="evenodd" d="M7.90444 14.8437C7.93262 14.8561 7.96303 14.8628 7.99383 14.8632V14.8671C8.03332 14.8672 8.07216 14.8571 8.10663 14.8378C8.15175 14.8124 12.6985 12.3213 18.3484 14.3928C18.3838 14.4063 18.422 14.4108 18.4594 14.4057C18.4969 14.4006 18.5325 14.3861 18.563 14.3636C18.5934 14.3412 18.6177 14.3114 18.6336 14.2771C18.6496 14.2428 18.6566 14.205 18.6541 14.1672C18.5831 12.6073 18.4359 11.9548 18.305 11.6728C18.4458 11.5013 18.5252 11.2877 18.5306 11.0659C18.5273 10.861 18.4543 10.6633 18.3236 10.5053C18.9761 10.1455 20.5496 9.16759 20.7318 8.02385C20.8801 7.93643 21.1097 7.76724 21.1751 7.53037C21.1755 7.52856 21.1761 7.52672 21.1766 7.52485C21.1781 7.51973 21.1796 7.51446 21.1796 7.5095C21.1993 7.39896 21.3409 6.50111 20.8779 6.16949C20.8672 5.78994 20.7504 4.77478 19.9084 4.04161C19.0371 3.28137 17.6835 3.06311 15.8788 3.39416C15.4502 3.21313 13.1852 2.39029 10.9259 3.85268C10.543 3.84027 8.88435 3.84986 7.36162 4.84358C7.10444 4.91352 5.96126 5.26431 5.63021 5.99748C5.18974 6.39452 3.93997 7.53544 3.78544 7.84168L3.76909 7.87326L3.76831 7.8748C3.59234 8.22222 3.32718 8.74575 3.49612 9.13488C3.5649 9.29424 3.56216 9.30059 3.50715 9.4282L3.50571 9.43153C3.49105 9.46368 3.47526 9.49977 3.45834 9.54151C3.43092 9.58829 3.39755 9.63132 3.35908 9.66953C3.19609 9.85508 2.95189 10.1348 3.00828 10.7512C3.01223 10.912 3.11262 11.8408 4.89986 12.1584C5.05721 12.2627 5.55013 12.5328 6.40624 12.4939C6.48805 12.4855 6.56911 12.471 6.64875 12.4505L6.6523 12.4497C6.94124 12.3874 7.53182 12.26 7.7767 12.433C7.80622 12.4546 7.8308 12.4821 7.8488 12.514C7.86679 12.5458 7.87778 12.581 7.88104 12.6174L7.76824 14.6224C7.76665 14.6531 7.77128 14.6839 7.78186 14.7128C7.79243 14.7418 7.80874 14.7683 7.8298 14.7908C7.85087 14.8133 7.87625 14.8313 7.90444 14.8437Z" fill="#0B4824"/>
<path d="M12.9484 22.2783H12.899C11.4665 22.2528 10.5534 21.0852 10.5155 21.035L10.7612 20.8466C10.7709 20.8572 11.6258 21.9464 12.9079 21.9684C13.8491 21.9816 14.8018 21.4277 15.7255 20.3121L15.965 20.5102C14.9964 21.684 13.9786 22.2792 12.9492 22.2792" fill="#0B4824"/>
<path d="M13.1791 16.5075C13.1793 16.6789 13.1286 16.8466 13.0334 16.9892C12.9383 17.1318 12.803 17.243 12.6446 17.3087C12.4863 17.3744 12.312 17.3916 12.1438 17.3582C11.9757 17.3248 11.8212 17.2423 11.7 17.121C11.5788 16.9998 11.4963 16.8454 11.4628 16.6772C11.4294 16.509 11.4467 16.3348 11.5124 16.1764C11.5781 16.0181 11.6892 15.8828 11.8319 15.7876C11.9745 15.6925 12.1421 15.6418 12.3135 15.642C12.543 15.6422 12.763 15.7335 12.9253 15.8957C13.0876 16.058 13.1788 16.278 13.1791 16.5075" fill="#0B4824"/>
<path d="M15.4296 16.5075C15.4298 16.6789 15.3792 16.8465 15.2841 16.9891C15.189 17.1317 15.0537 17.2429 14.8954 17.3086C14.7371 17.3743 14.5629 17.3916 14.3947 17.3583C14.2266 17.3249 14.0721 17.2425 13.9509 17.1213C13.8296 17.0002 13.747 16.8458 13.7135 16.6777C13.68 16.5096 13.6971 16.3354 13.7627 16.177C13.8282 16.0187 13.9393 15.8833 14.0818 15.788C14.2243 15.6928 14.3918 15.642 14.5632 15.642C14.7928 15.6422 15.0129 15.7334 15.1753 15.8957C15.3377 16.0579 15.4292 16.2779 15.4296 16.5075" fill="#0B4824"/>
<path d="M13.2486 19.5962C13.3693 18.986 12.7582 18.4692 12.1533 18.4692C12.0036 18.4702 11.8559 18.5024 11.7194 18.5638C11.583 18.6252 11.4608 18.7145 11.3608 18.8258C11.3439 18.8358 11.3284 18.8483 11.315 18.8627C11.0215 19.1627 10.7145 19.4506 10.394 19.7265C10.0876 19.9907 9.7856 20.2548 9.40786 20.4151C8.73515 20.6951 8.04483 20.4468 7.55879 19.9308C7.54382 19.9141 7.52798 19.8973 7.51301 19.8797C7.09917 19.4069 6.97061 18.8557 6.9847 18.2393C6.99615 17.8185 7.06571 17.3588 7.28143 16.989C7.57024 16.4959 8.12584 16.3375 8.66911 16.4088C8.95051 16.434 9.21749 16.5446 9.43427 16.7258C9.64119 16.9142 9.76094 17.2153 9.68081 17.4839C9.60069 17.7524 9.37 17.918 9.14459 18.0659C9.36821 18.0104 9.5814 17.9191 9.77591 17.7956C9.9719 17.6711 10.1183 17.482 10.1897 17.2611C10.2228 17.1251 10.2253 16.9835 10.197 16.8465C10.1687 16.7094 10.1103 16.5804 10.026 16.4687C9.85395 16.2452 9.62404 16.0732 9.36119 15.9712C8.98356 15.8083 8.5654 15.7638 8.16194 15.8435C7.77794 15.9371 7.42309 16.1243 7.12911 16.3885C6.63954 16.8076 6.40885 17.3131 6.33665 17.9426C6.29859 18.2586 6.30779 18.5785 6.36395 18.8918C6.60432 20.1835 7.82735 21.0763 9.03893 21.3792C9.81401 21.5834 10.6298 21.5749 11.4004 21.3546C11.8979 21.2023 13.0267 20.7118 13.2495 19.5997" fill="#0B4824"/>
<path d="M13.9856 19.5962C13.865 18.986 14.4761 18.4691 15.0818 18.4691C15.2315 18.47 15.3793 18.5022 15.5158 18.5636C15.6523 18.6251 15.7744 18.7143 15.8743 18.8257C15.8913 18.8358 15.9067 18.8483 15.9201 18.8627C16.2136 19.1627 16.5206 19.4506 16.8411 19.7265C17.1475 19.9906 17.4504 20.2548 17.8273 20.415C18.5 20.695 19.1903 20.4467 19.6763 19.9308C19.6922 19.914 19.7072 19.8973 19.7221 19.8797C20.136 19.4069 20.2654 18.8557 20.2504 18.2393C20.239 17.8184 20.1694 17.3588 19.9546 16.989C19.6649 16.4959 19.1093 16.3374 18.566 16.4087C18.2849 16.434 18.0182 16.5446 17.8017 16.7257C17.5939 16.9142 17.4751 17.2153 17.5543 17.4838C17.6336 17.7524 17.8651 17.9179 18.0905 18.0659C17.867 18.0102 17.6538 17.9189 17.4592 17.7955C17.2633 17.6712 17.1171 17.4821 17.0463 17.2611C17.0128 17.1252 17.01 16.9835 17.0382 16.8464C17.0664 16.7094 17.1248 16.5803 17.2092 16.4686C17.3813 16.245 17.6116 16.0729 17.8748 15.9711C18.2521 15.8079 18.67 15.7634 19.0732 15.8435C19.4554 15.9363 19.8087 16.1224 20.1016 16.385C20.5921 16.8041 20.8219 17.3095 20.8941 17.9391C20.9321 18.2551 20.9229 18.575 20.8668 18.8882C20.6299 20.1808 19.406 21.0728 18.1936 21.3757C17.4185 21.5798 16.6027 21.5713 15.832 21.351C15.3354 21.1987 14.2057 20.7083 13.983 19.5962" fill="#0B4824"/>
</svg>
