<svg xmlns="http://www.w3.org/2000/svg" viewBox="0 0 82.95 1149.91"><defs><style>.cls-1{fill:#fff;}</style></defs><g id="Capa_2" data-name="Capa 2"><g id="Capa_1-2" data-name="Capa 1"><path class="cls-1" d="M45.37,1109.91q9.9.51,15.16,5.55t5.26,14.28a17.61,17.61,0,0,1-7,14.71q-7,5.46-19.08,5.46H28.51q-12,0-19-5.61c-4.65-3.74-7-8.82-7-15.28q0-8.93,5.32-13.81t15.27-5.3v7.82q-7.53.51-10.74,3.17c-2.14,1.78-3.22,4.48-3.22,8.12a11,11,0,0,0,4.93,9.68q4.92,3.39,14.44,3.38H39.84q9.33,0,14.33-3.15a10.22,10.22,0,0,0,5-9.19c0-4-1-6.94-3-8.71s-5.59-2.88-10.78-3.3Z"/><path class="cls-1" d="M40,1102.05q-10,0-15.79-4.85a15.82,15.82,0,0,1-5.81-12.78,16,16,0,0,1,5.66-12.8q5.67-4.84,15.43-5h4.82q9.94,0,15.73,4.82a17.2,17.2,0,0,1,.17,25.59q-5.62,4.8-15.22,5Zm4.31-7.49q7.06,0,11.1-2.77a8.62,8.62,0,0,0,4-7.46q0-9.88-14.29-10.19H40q-7,0-11.1,2.79a8.65,8.65,0,0,0-4.08,7.49,8.52,8.52,0,0,0,4.08,7.37q4.08,2.76,11.06,2.77Z"/><path class="cls-1" d="M19.2,1050l4.23-.17a13.61,13.61,0,0,1-5.07-11q0-7.65,6.63-10.69a13.58,13.58,0,0,1-6.63-12q0-12.64,15.77-12.94H65v7.44H34.85c-3.33,0-5.8.6-7.42,1.78s-2.44,3.19-2.44,6a6.73,6.73,0,0,0,2.63,5.5,11.87,11.87,0,0,0,6.68,2.45H65v7.53H34.51q-9.51.12-9.52,7.74,0,5.65,5.67,8H65V1057H19.2Z"/><path class="cls-1" d="M44.27,958.8q10.88,0,16.19,3.91a12.91,12.91,0,0,1,5.33,11.06,12.25,12.25,0,0,1-5.2,10.61H82.53v7.44H19.2v-6.76l5.08-.38a12,12,0,0,1-5.92-10.78q0-7.53,5.24-11.25t15.68-3.85ZM40,966.25q-7.7,0-11.35,2.36T25,976.22q0,5.37,5.37,8.16H54.17q5.23-2.75,5.24-8.24c0-3.38-1.22-5.88-3.66-7.47s-6.16-2.4-11.18-2.42Z"/><path class="cls-1" d="M65,925.61a16.24,16.24,0,0,1-5,1q5.84,4,5.83,10.14t-3.49,9.7q-3.48,3.5-9.83,3.5a13.88,13.88,0,0,1-11.07-4.74q-4.11-4.74-4.19-13v-5.5H32.35c-2.73,0-4.68.61-5.83,1.82s-1.74,3.06-1.74,5.54a7.65,7.65,0,0,0,2,5.5,6.73,6.73,0,0,0,5.1,2.11v7.49a12.17,12.17,0,0,1-6.71-2.08,14.54,14.54,0,0,1-5-5.58,16.75,16.75,0,0,1-1.81-7.82q0-7,3.48-10.68T32,919.27H55.1a27.63,27.63,0,0,0,9.17-1.43H65Zm-6,10a9.85,9.85,0,0,0-1.52-5.24,9.45,9.45,0,0,0-3.8-3.64H42.75v4.23c.06,3.55.85,6.36,2.39,8.42a7.6,7.6,0,0,0,6.45,3.08q3.88,0,5.64-1.56T59,935.59Z"/><path class="cls-1" d="M19.2,900.63l4.95-.21a13.36,13.36,0,0,1-5.79-11.12q0-12.13,16.19-12.31H65v7.45H34.89c-3.58,0-6.13.59-7.64,1.79A6.49,6.49,0,0,0,25,891.62a7.59,7.59,0,0,0,1.86,5,13.46,13.46,0,0,0,4.87,3.58H65v7.48H19.2ZM1.36,879.36a11.86,11.86,0,0,1,7.34,2.2,6.82,6.82,0,0,1,2.89,5.67,6.62,6.62,0,0,1-.44,2.53,13.92,13.92,0,0,1-1.74,2.75A11.36,11.36,0,0,0,7.85,895a5.2,5.2,0,0,0-.28,1.74,2.84,2.84,0,0,0,1.36,2.38,5.77,5.77,0,0,0,3.38,1L12,904.9a12,12,0,0,1-7.52-2.24,6.78,6.78,0,0,1-2.92-5.58,5.16,5.16,0,0,1,.49-2.29,18.59,18.59,0,0,1,1.58-2.56,16.31,16.31,0,0,0,1.55-2.51,5.11,5.11,0,0,0,.44-2.11,2.88,2.88,0,0,0-1.37-2.41,5.74,5.74,0,0,0-3.41-1Z"/><path class="cls-1" d="M.05,857.42V848l12.43,11.33,0,6.3Zm64.9.29v7.49H19.2v-7.48Z"/><path class="cls-1" d="M64.94,821.9a16.09,16.09,0,0,1-5,1q5.84,4,5.83,10.14c0,4.15-1.16,7.37-3.49,9.7s-5.6,3.5-9.83,3.5a13.88,13.88,0,0,1-11.07-4.74q-4.11-4.74-4.19-13V823H32.35c-2.74,0-4.68.61-5.84,1.82s-1.73,3.06-1.73,5.54a7.65,7.65,0,0,0,2,5.5A6.72,6.72,0,0,0,31.88,838v7.48a12.13,12.13,0,0,1-6.7-2.07,14.38,14.38,0,0,1-5-5.58A16.75,16.75,0,0,1,18.35,830q0-7,3.49-10.68T32,815.56H55.09a27.91,27.91,0,0,0,9.18-1.43h.67Zm-6,10a9.85,9.85,0,0,0-1.52-5.24,9.38,9.38,0,0,0-3.8-3.64H42.75v4.23c.06,3.55.85,6.36,2.39,8.42a7.59,7.59,0,0,0,6.45,3.08q3.88,0,5.64-1.56T59,831.88Z"/><path class="cls-1" d="M40,785.71q-10.57,0-16.11-4t-5.54-11.34a11.75,11.75,0,0,1,5.33-10.23H0V752.7H64.94v6.85l-4.9.38a11.79,11.79,0,0,1,5.75,10.53,13,13,0,0,1-5.52,11.13q-5.52,4-15.58,4.13Zm4.24-7.48q7.69,0,11.3-2.28c2.41-1.52,3.61-4,3.61-7.44q0-5.58-5.61-8.33H30.48c-3.66,1.91-5.49,4.68-5.49,8.28,0,3.44,1.21,5.92,3.61,7.45s6.1,2.29,11.08,2.32Z"/><path class="cls-1" d="M65.79,724.83q0,8.55-5.1,13.11t-14.94,4.65H40.21q-10.23,0-16-4.47t-5.82-12.44q0-8,5.12-12t15.94-4.06h4.9v25.54h1.06q7.35,0,10.7-2.78c2.22-1.84,3.34-4.49,3.34-8a13,13,0,0,0-1.25-5.82,14.38,14.38,0,0,0-4-4.71L58.94,710Q65.8,714.85,65.79,724.83Zm-41,.85q0,4.65,3.19,6.89t9.92,2.54v-18h-1q-6.51.28-9.3,2.34A7.23,7.23,0,0,0,24.78,725.68Z"/><path class="cls-1" d="M49.38,652.87q-4.6,0-7.06,2.5t-4.77,9a38.74,38.74,0,0,1-4.89,10,17.22,17.22,0,0,1-5.83,5.16,16,16,0,0,1-7.5,1.72,16,16,0,0,1-12-4.89q-4.74-4.87-4.74-12.78A19,19,0,0,1,5,653.89a16.4,16.4,0,0,1,6.72-6.51,19.89,19.89,0,0,1,9.46-2.29v7.78c-3.8,0-6.75.92-8.83,2.75s-3.13,4.47-3.13,7.91q0,4.69,2.62,7.27t7.37,2.58a8.62,8.62,0,0,0,6.53-2.79A24.88,24.88,0,0,0,30.39,662q3-9.09,7.41-13t11.5-3.91q7.49,0,12,4.86t4.5,13.24a21.16,21.16,0,0,1-2.35,9.9,17.71,17.71,0,0,1-6.59,7.15,18.35,18.35,0,0,1-9.75,2.61V675q5.71,0,8.88-3.2a11.79,11.79,0,0,0,3.17-8.68q0-5.11-2.62-7.7A9.75,9.75,0,0,0,49.38,652.87Z"/><path class="cls-1" d="M65.79,619.6q0,8.53-5.1,13.11t-14.94,4.65H40.21q-10.23,0-16-4.47t-5.82-12.44q0-8,5.12-12t15.94-4.06h4.9v25.54h1.06q7.35,0,10.69-2.78t3.34-8a13,13,0,0,0-1.24-5.82,14.28,14.28,0,0,0-4-4.71l4.74-3.89Q65.78,609.62,65.79,619.6Zm-41,.85c0,3.1,1.06,5.39,3.19,6.89s5.43,2.34,9.91,2.53v-18h-1q-6.51.3-9.3,2.34A7.26,7.26,0,0,0,24.78,620.45Z"/><path class="cls-1" d="M40,596.9q-10.7,0-16.17-3.89t-5.48-11.38a11.71,11.71,0,0,1,6-10.61l-5.11-.38v-6.76H65.36q8.51,0,13,4.35T83,580.36A20.7,20.7,0,0,1,81.28,588a15.88,15.88,0,0,1-4.12,6.32l-5.16-3A14.37,14.37,0,0,0,76.57,581q0-9.35-10.19-9.6h-6a11.72,11.72,0,0,1,5.37,10.31,13,13,0,0,1-5.35,11.08q-5.36,4-15.37,4.15Zm4.24-7.49q7.69,0,11.3-2.27t3.61-7.41q0-5.58-5.7-8.37H30.61Q25,574.27,25,579.65q0,5.16,3.61,7.44t11.08,2.32Z"/><path class="cls-1" d="M60.92,529.42q4.88,3.72,4.87,10.86,0,6.22-4.29,9.39T49,552.88H19.2v-7.44H48.45q10.69,0,10.7-6.42,0-6.81-6.09-9.39H19.2v-7.48H64.94v7.1Z"/><path class="cls-1" d="M26.21,492a18.84,18.84,0,0,0-.29,3.38q0,5.76,6.3,8H64.94v7.48H19.2v-7.27l4.65-.13q-5.51-3-5.5-8.5a6.67,6.67,0,0,1,.59-3Z"/><path class="cls-1" d="M40,487q-10,0-15.79-4.85a15.8,15.8,0,0,1-5.81-12.78A16,16,0,0,1,24,456.54q5.65-4.83,15.43-5h4.82q9.93,0,15.72,4.82a17.19,17.19,0,0,1,.17,25.6c-3.75,3.19-8.82,4.86-15.22,5Zm4.32-7.48q7,0,11.09-2.78a8.59,8.59,0,0,0,4-7.45q0-9.9-14.29-10.19H40q-7,0-11.09,2.79a8.64,8.64,0,0,0-4.08,7.48,8.52,8.52,0,0,0,4.08,7.37q4.08,2.78,11,2.78Z"/><path class="cls-1" d="M53.23,419.7a5.52,5.52,0,0,0-4.14,1.82q-1.74,1.82-4.06,7a46.5,46.5,0,0,1-4.27,8.51,12.25,12.25,0,0,1-4,3.71A11.12,11.12,0,0,1,31.33,442a12,12,0,0,1-9.28-4.09,14.9,14.9,0,0,1-3.7-10.42q0-6.68,3.89-10.73a13.2,13.2,0,0,1,10-4.06v7.44A7.39,7.39,0,0,0,27,422.2a7,7,0,0,0-2.17,5.28,7.47,7.47,0,0,0,1.7,5.18,5.9,5.9,0,0,0,4.57,1.88,5,5,0,0,0,3.67-1.38q1.39-1.37,3.67-6.61,3.26-8.32,6.37-11.33a10.93,10.93,0,0,1,7.9-3,12.06,12.06,0,0,1,9.55,4.1q3.57,4.11,3.58,11,0,7.15-4.11,11.59a13.54,13.54,0,0,1-10.4,4.44v-7.53a8.4,8.4,0,0,0,6-2.32,10.17,10.17,0,0,0,.48-11.84A5.61,5.61,0,0,0,53.23,419.7Z"/><path class="cls-1" d="M64.94,381.61H3.38V364.07q0-8.42,4.1-12.67t12.31-4.25a13.59,13.59,0,0,1,7.61,2.16,14.47,14.47,0,0,1,5.11,5.83,11.76,11.76,0,0,1,5.2-6.7A17.42,17.42,0,0,1,47.18,346q8.3,0,13,4.54t4.74,13Zm-35.3-7.74v-9.93a8.35,8.35,0,0,0-2.72-6.5,10.25,10.25,0,0,0-7.2-2.46c-3.39,0-5.85.74-7.39,2.24S10,361,10,364.07v9.8Zm6.51,0H58.3V363.3a8.86,8.86,0,0,0-2.89-7q-2.91-2.58-8.14-2.58-11.13,0-11.12,9.39Z"/><path class="cls-1" d="M40,337q-10,0-15.79-4.85a15.82,15.82,0,0,1-5.81-12.78A16,16,0,0,1,24,306.58q5.67-4.84,15.44-5h4.81q9.95,0,15.73,4.82A17.2,17.2,0,0,1,60.16,332q-5.62,4.8-15.22,5Zm4.32-7.49q7,0,11.09-2.77a8.62,8.62,0,0,0,4-7.46q0-9.89-14.29-10.19H40q-7,0-11.1,2.79a8.64,8.64,0,0,0-4.07,7.49,8.53,8.53,0,0,0,4.07,7.37q4.08,2.76,11.06,2.77Z"/><path class="cls-1" d="M64.94,283.9v7.49H0v-7.48Z"/><path class="cls-1" d="M0,263.78v-9.47l12.43,11.33,0,6.3Zm64.9.29v7.49H19.19v-7.48Z"/><path class="cls-1" d="M53.57,238.83l-34.38-8.66v-7.61l45.75,13.57v5.58L19.19,255.45v-7.61Z"/><path class="cls-1" d="M64.94,191.86a16.3,16.3,0,0,1-5,1q5.83,4,5.83,10.15t-3.48,9.7q-3.49,3.48-9.83,3.49a13.92,13.92,0,0,1-11.08-4.73q-4.11-4.74-4.19-13V193H32.34c-2.73,0-4.68.61-5.83,1.82s-1.74,3.06-1.74,5.54a7.67,7.67,0,0,0,2,5.5,6.76,6.76,0,0,0,5.1,2.11v7.48a12.1,12.1,0,0,1-6.7-2.07,14.38,14.38,0,0,1-5-5.58,16.66,16.66,0,0,1-1.82-7.82c0-4.68,1.16-8.25,3.49-10.68s5.71-3.68,10.16-3.74H55.09a27.88,27.88,0,0,0,9.17-1.44h.68Zm-6,10a9.86,9.86,0,0,0-1.53-5.24,9.32,9.32,0,0,0-3.8-3.64H42.74v4.23c.06,3.55.85,6.36,2.39,8.41a7.59,7.59,0,0,0,6.45,3.09q3.89,0,5.64-1.56T59,201.84Z"/><path class="cls-1" d="M26.21,155a17.93,17.93,0,0,0-.3,3.38q0,5.75,6.3,8H64.94v7.49H19.19v-7.28l4.65-.12q-5.49-3-5.49-8.5a6.53,6.53,0,0,1,.59-3Z"/><path class="cls-1" d="M49.38,99.82c-3.07,0-5.43.83-7.06,2.5s-3.23,4.66-4.78,9a39.27,39.27,0,0,1-4.88,10,17.25,17.25,0,0,1-5.84,5.16,16,16,0,0,1-7.5,1.72,16.09,16.09,0,0,1-12-4.89c-3.16-3.26-4.74-7.51-4.74-12.78A19.09,19.09,0,0,1,5,100.84a16.46,16.46,0,0,1,6.72-6.51A19.82,19.82,0,0,1,21.14,92v7.78c-3.81,0-6.75.92-8.84,2.75S9.17,107,9.17,110.48a9.78,9.78,0,0,0,2.62,7.27,10.1,10.1,0,0,0,7.37,2.58,8.62,8.62,0,0,0,6.53-2.79,24.72,24.72,0,0,0,4.7-8.63q3-9.09,7.4-13T49.29,92q7.49,0,12,4.86t4.5,13.23A21.32,21.32,0,0,1,63.44,120a17.86,17.86,0,0,1-6.6,7.15,18.31,18.31,0,0,1-9.74,2.6V122c3.8,0,6.76-1.08,8.87-3.2s3.17-5,3.17-8.69q0-5.11-2.62-7.69A9.73,9.73,0,0,0,49.38,99.82Z"/><path class="cls-1" d="M60.84,82.4a4.92,4.92,0,0,1-3.39-1.21,4.58,4.58,0,0,1-1.35-3.61,4.75,4.75,0,0,1,1.35-3.66,4.8,4.8,0,0,1,3.39-1.24,4.53,4.53,0,0,1,3.25,1.24,4.84,4.84,0,0,1,1.31,3.66,4.35,4.35,0,0,1-4.56,4.82Z"/><path class="cls-1" d="M48.83,30.36v20.8l16.11,4.78v7.94L3.38,44.06V37.42L64.94,17.55v7.94ZM42.19,49.13V32.34l-28,8.42Z"/><path class="cls-1" d="M60.83,9.72a4.87,4.87,0,0,1-3.38-1.21A4.58,4.58,0,0,1,56.1,4.9a4.75,4.75,0,0,1,1.35-3.66A4.8,4.8,0,0,1,60.83,0a4.54,4.54,0,0,1,3.26,1.24A4.84,4.84,0,0,1,65.4,4.9a4.66,4.66,0,0,1-1.31,3.61A4.6,4.6,0,0,1,60.83,9.72Z"/></g></g></svg>