<svg xmlns="http://www.w3.org/2000/svg" viewBox="0 0 141.83 1435.22"><defs><style>.cls-1{fill:#fff;}</style></defs><g id="Capa_2" data-name="Capa 2"><g id="Capa_1-2" data-name="Capa 1"><path class="cls-1" d="M41.82,1368l46.57,15.49-46.57,16v13.8l63-22.62v-13.63l-63-22.58Zm0-19.84h63v-12.81h-63Zm54.27-82h-25v27.54H81.59v-14.68h8a29.09,29.09,0,0,1,3.84,6.94,25,25,0,0,1,1.57,8,17.3,17.3,0,0,1-5.55,13.16c-3.86,3.35-9.41,4.92-16.84,4.92-7,0-12.16-1.5-15.66-4.84s-5.4-7.83-5.4-13.38a15.14,15.14,0,0,1,2.82-9.2,12.68,12.68,0,0,1,7.27-5L59.26,1267a23,23,0,0,0-13.6,8.55c-3.24,4.44-4.92,10.55-4.92,18.39,0,6,1.08,11.11,3.19,15.11a28.05,28.05,0,0,0,11.72,12.18A36.14,36.14,0,0,0,73,1325.33a36.92,36.92,0,0,0,16.79-3.71,27.07,27.07,0,0,0,11.89-11,35.3,35.3,0,0,0,4.09-17.38,44.42,44.42,0,0,0-2.85-15.47A33.54,33.54,0,0,0,96.09,1266.22Zm-54.27-11.6h63v-12.71h-63Zm.45-38.09v12.76h62.51v-44.47H94.13v31.71Zm-.45-59.07,63,24.59v-13.59l-14.3-5.27V1138l14.3-5.56v-13.88l-63,25.32Zm38.07-15.4v17.28l-23.45-8.62Zm24.89-54.43a42.62,42.62,0,0,0-1.31-11.29,20.82,20.82,0,0,0-5.13-8.94,26.78,26.78,0,0,0-11.08-6.81,40.52,40.52,0,0,0-13.35-1.9c-5.91,0-10.84.6-14.89,2.06a27,27,0,0,0-10.19,6,21.78,21.78,0,0,0-5.78,9.62c-.87,2.75-1.23,6.74-1.23,12v23.32h63Zm-10.65,11.28H52.53v-5.75c0-5.17.08-8.64.53-10.52a12,12,0,0,1,3-5.85,13.82,13.82,0,0,1,6.13-3.55c2.49-.93,6.27-1.29,11.23-1.29a39.37,39.37,0,0,1,11.54,1.29,13.2,13.2,0,0,1,6,3.27,10.2,10.2,0,0,1,2.57,5.19,31.05,31.05,0,0,1,.63,7.66ZM73.4,989c-10.3,0-18.25,2.82-24,8.29-5.79,5.73-8.68,13.11-8.68,22.46a32.61,32.61,0,0,0,2.58,13.59,23.39,23.39,0,0,0,5.6,8.27,29.17,29.17,0,0,0,8.6,5.76c4.34,2,9.74,3,16.13,3,10,0,17.88-2.82,23.52-8.39s8.61-13,8.61-22.5c0-9.19-2.85-16.63-8.61-22.17S83.51,989,73.4,989Zm16.12,43.12c-3.68,3.4-9.14,5-16.21,5-7.32,0-12.7-1.57-16.36-4.91-3.62-3.12-5.42-7.38-5.42-12.66s1.8-9.49,5.4-12.59c3.5-3.26,8.94-4.83,16.08-4.83,7.37,0,12.84,1.57,16.51,4.91a17.07,17.07,0,0,1,0,25ZM0,1435.22H13.65V966.53H0ZM122.85,630.34a16,16,0,0,0-3.64-3.66,22.14,22.14,0,0,0-5.79-2.75,27.71,27.71,0,0,0-8.1-1.09,25.92,25.92,0,0,0-9.51,1.57,17.56,17.56,0,0,0-6.88,4.81,12.38,12.38,0,0,0-2.82,5.85,34.34,34.34,0,0,0-.65,7.22v13.82h40V641.62a27.63,27.63,0,0,0-.62-6.48A20.44,20.44,0,0,0,122.85,630.34Zm-2.08,20.43H90.3v-8.48c0-3,.18-5.51.74-6.78a11.46,11.46,0,0,1,4.59-5.09c2.14-1.37,5.37-2,9.5-2a20.9,20.9,0,0,1,7.72,1.1,10.63,10.63,0,0,1,5.09,2.89A8.26,8.26,0,0,1,120,636a20.49,20.49,0,0,1,.74,6.31Zm0-40.67H107.09V587.89h-4.64V610.1H90.3V586.27H85.46v29.19h40V585.35h-4.7Zm-8-81.69-1.3,5.28a13.64,13.64,0,0,1,7.6,4.27,11.69,11.69,0,0,1,2.6,7.6,12.44,12.44,0,0,1-1.86,6.73,10.74,10.74,0,0,1-5.79,4.7,23.31,23.31,0,0,1-8.93,1.52,24.25,24.25,0,0,1-7.54-1.22,12.4,12.4,0,0,1-6.06-4.44,13,13,0,0,1-2.1-7.66,10.66,10.66,0,0,1,2-6.72,12.06,12.06,0,0,1,6.29-4.11l-1.16-5.29a16,16,0,0,0-8.61,5.76A16.44,16.44,0,0,0,84.8,545a19.89,19.89,0,0,0,2.46,9.78,16.72,16.72,0,0,0,7.07,6.86,23,23,0,0,0,10.8,2.4A27.28,27.28,0,0,0,116,561.9a17.22,17.22,0,0,0,7.7-6.21,20,20,0,0,0,2.53-10.57,16.92,16.92,0,0,0-3.34-10.64A18.06,18.06,0,0,0,112.81,528.41Zm3.66-40.88a23.13,23.13,0,0,0-10.86-2.47,25,25,0,0,0-10.8,2.24,18.77,18.77,0,0,0-7.37,6.9,19.06,19.06,0,0,0-2.64,10c0,5.8,1.8,10.36,5.68,14,3.73,3.55,8.92,5.34,15.52,5.34a23,23,0,0,0,10.07-2.31,17.49,17.49,0,0,0,7.42-6.8,18.61,18.61,0,0,0,2.7-10.05,19.24,19.24,0,0,0-2.53-9.83A16,16,0,0,0,116.47,487.53Zm1,26.48c-2.76,2.69-6.6,4-11.37,4-6,0-10.33-1.3-12.94-4a14,14,0,0,1-3.77-9.8,12.74,12.74,0,0,1,7.57-12,20.79,20.79,0,0,1,8.5-1.68c5.21,0,9.16,1.37,11.94,3.91a12.9,12.9,0,0,1,4.27,9.92A12.57,12.57,0,0,1,117.51,514Zm8-60.77h-4.7v19.82H85.46v5.35h40Zm-9-40.74A22.21,22.21,0,0,0,105.61,410a22.79,22.79,0,0,0-10.8,2.4,18,18,0,0,0-7.37,6.8,19,19,0,0,0-2.64,10c0,5.72,1.8,10.42,5.68,13.87,3.73,3.63,8.92,5.44,15.52,5.44a22.47,22.47,0,0,0,10.07-2.3,17.41,17.41,0,0,0,7.42-6.74,19.35,19.35,0,0,0,2.7-10.27,19.16,19.16,0,0,0-2.53-9.7A16.92,16.92,0,0,0,116.47,412.5Zm1,26.63c-2.76,2.6-6.6,3.9-11.37,3.9-6,0-10.33-1.3-12.94-4a14.05,14.05,0,0,1-3.77-9.82,13.7,13.7,0,0,1,2-7.24A14,14,0,0,1,97,417.2a21.13,21.13,0,0,1,8.5-1.66c5.21,0,9.16,1.29,11.94,3.84a13.63,13.63,0,0,1,.07,19.75Zm8-41h-34l34-11.57v-4.84l-33.4-11.65h33.4V365h-40v7.18l27.86,9.63c2.85,1,5,1.65,6.53,2.16-1.33.43-3.38,1.06-6,1.88l-28.37,9.55v8h40Zm0-56.94a26.28,26.28,0,0,0-.62-6.43,12.36,12.36,0,0,0-2-4.44,10.51,10.51,0,0,0-3.74-2.88,10.81,10.81,0,0,0-5.23-1.37,9.68,9.68,0,0,0-6,2.15,10.26,10.26,0,0,0-3.71,5.52,9.8,9.8,0,0,0-3.59-4.27,9.86,9.86,0,0,0-13.89,4.56,20.89,20.89,0,0,0-1.24,7.52v15.06h40Zm-23.16,10.14h-12v-8.11a21.89,21.89,0,0,1,.51-6.17,5.08,5.08,0,0,1,2-2.74,6.92,6.92,0,0,1,3.55-.92,5.42,5.42,0,0,1,5.48,4.11,17.56,17.56,0,0,1,.44,5Zm18.46,0H107v-9.43a18,18,0,0,1,.73-5.85,5.55,5.55,0,0,1,2.31-3.11,5.91,5.91,0,0,1,3.83-1.23,6.65,6.65,0,0,1,3.42.78,5.32,5.32,0,0,1,2.22,2,8.79,8.79,0,0,1,1.1,3,32.71,32.71,0,0,1,.15,3.62Zm4.7-38.65h-40V318h40Zm0-10.63-12-4.42V280.82l12-4.72v-6l-40,16.37v5.79l40,15.42Zm-16.38-5.94-11.69-4.5a51.34,51.34,0,0,0-7.67-2.08c2.14-.64,4.91-1.65,8.37-2.92l11-4.18Zm-65.22,606a5,5,0,0,1,3.24-1,6.09,6.09,0,0,1,3.47,1.09,9.41,9.41,0,0,1,2.48,3.46,15,15,0,0,1,.85,5.45,14.76,14.76,0,0,1-1.23,6.13,8.43,8.43,0,0,1-3.11,4A10,10,0,0,1,44.64,923l.37,5a12.76,12.76,0,0,0,12-7.86,22.66,22.66,0,0,0,1.68-9.27,18.45,18.45,0,0,0-1.62-7.73,12.11,12.11,0,0,0-4.4-5.29,11.17,11.17,0,0,0-6-1.81A10.4,10.4,0,0,0,41,897.63a12.91,12.91,0,0,0-4.1,5.2,66.51,66.51,0,0,0-2.51,8.91c-1,4.43-2,7-2.86,8.1a4.53,4.53,0,0,1-3.56,1.46,5.36,5.36,0,0,1-4.27-2.11c-1.14-1.57-1.82-3.9-1.82-7.09s.69-5.4,2.14-7a7.21,7.21,0,0,1,5.61-2.75l-.35-5.17a12.48,12.48,0,0,0-6.26,2,10.32,10.32,0,0,0-4.23,5.28,19.93,19.93,0,0,0-1.46,7.86,20.71,20.71,0,0,0,1.35,7.43,11,11,0,0,0,4,5,10.41,10.41,0,0,0,5.73,1.74,7.82,7.82,0,0,0,4.8-1.45,11,11,0,0,0,3.91-4.28A38.08,38.08,0,0,0,39.51,913a50.23,50.23,0,0,1,2-7.1A7.9,7.9,0,0,1,43.87,902.18Zm4.91-19.84a21.4,21.4,0,0,1-7.73,1H18v5.29H41.11a28.63,28.63,0,0,0,9.94-1.53,11.25,11.25,0,0,0,5.7-5.21,19.82,19.82,0,0,0,2-9.18c0-3.83-.73-7.1-2.32-9.49a11.61,11.61,0,0,0-5.65-4.91A29,29,0,0,0,41.11,857H18v5.27H41.05c5,0,8.37.82,10.24,2.55s2.62,4.44,2.62,8.26A12.44,12.44,0,0,1,52.53,879,7.37,7.37,0,0,1,48.78,882.34ZM18,848.17H58v-5.29H41.69V832.6c0-5.81-1.18-9.72-3.46-11.89a12.7,12.7,0,0,0-14.13-2,10.38,10.38,0,0,0-3.9,3.18,12,12,0,0,0-1.85,4.92,40.9,40.9,0,0,0-.36,6.09Zm4.66-15.57a23.31,23.31,0,0,1,.37-5,6.15,6.15,0,0,1,2.38-3.43,7.62,7.62,0,0,1,4.27-1.2,6.89,6.89,0,0,1,5.42,2c1.31,1.53,1.9,4,1.9,7.45v10.44H22.65Zm-4.66-22H58v-30.1H53.25v24.74H39.62V783H35v22.21H22.65V781.45H18Zm0-37.53H58v-5.31H40.19V761.6a19.44,19.44,0,0,1,.18-3,8.2,8.2,0,0,1,1.13-2.47,11.72,11.72,0,0,1,2.64-2.68c1.32-.92,3.15-2.31,5.52-3.82L58,744.32v-6.65L47.11,744.6a24.67,24.67,0,0,0-5.29,4.49,13.26,13.26,0,0,0-2,3.18c-.53-3.83-1.76-6.72-3.77-8.61A9.68,9.68,0,0,0,28.85,741a12,12,0,0,0-6,1.58,9.16,9.16,0,0,0-3.83,4.47A24.47,24.47,0,0,0,18,755.24Zm4.39-18c0-3,.6-5.21,1.82-6.53a5.72,5.72,0,0,1,4.65-2.09,6.62,6.62,0,0,1,3.68,1.08,6.73,6.73,0,0,1,2.38,3.12,16.6,16.6,0,0,1,.72,5.71v11.43H22.38ZM18,731.66H58v-5.29H18ZM18,717H58V711.9H26.57L58,690.78v-5.46H18v5.17H49.42L18,711.54Zm0-37.63h4.66V666.18H58v-5.35H22.65V647.52H18Zm0-37.47H58V612H53.25v24.67H39.62V614.44H35v22.21H22.65V612.92H18Zm0-37.2H58v-5.2H26.57L58,578.42V572.9H18v5.15H49.42L18,599.18ZM18,564H58V549.47a34.16,34.16,0,0,0-.58-6.44,19,19,0,0,0-2.06-4.76,19.6,19.6,0,0,0-3.55-3.71,21.46,21.46,0,0,0-6-2.76,30.65,30.65,0,0,0-8.06-1.08,26,26,0,0,0-9.51,1.65,15.57,15.57,0,0,0-6.87,4.72,13.82,13.82,0,0,0-2.78,5.85,28,28,0,0,0-.62,7.25Zm4.66-13.76a19.42,19.42,0,0,1,.92-6.86c.63-2.1,2.27-3.7,4.36-5.07,2.32-1.39,5.58-2.09,9.76-2.09a24.47,24.47,0,0,1,7.77,1.07,14,14,0,0,1,5,3,8.44,8.44,0,0,1,2.1,3.61,19.28,19.28,0,0,1,.72,6.22v8.61H22.65Zm-4.66-27H58V493.32H53.25V518H39.62V495.77H35V518H22.65V494.2H18ZM18,486H58v-5.08H26.57L58,459.73v-5.34H18v5H49.42L18,480.51Zm8.78-41.52A23.68,23.68,0,0,0,37.69,447a28.21,28.21,0,0,0,10.72-2.1A16.55,16.55,0,0,0,56,438.62,19.35,19.35,0,0,0,58.7,428c-.08-4.28-1.18-7.74-3.55-10.57-2.09-2.88-5.49-5-9.86-6.07l-1.36,5.35a12.69,12.69,0,0,1,7.6,4.19,11,11,0,0,1,2.64,7.52,12.52,12.52,0,0,1-2,6.89,11.48,11.48,0,0,1-5.64,4.62,23.25,23.25,0,0,1-8.89,1.45A24.27,24.27,0,0,1,30,440.14a11.26,11.26,0,0,1-6-4.36A12.81,12.81,0,0,1,21.78,428a10.78,10.78,0,0,1,2-6.68,12,12,0,0,1,6.36-3.95l-1.23-5.28a15.26,15.26,0,0,0-8.52,5.7,16.19,16.19,0,0,0-3.13,10.15,19.82,19.82,0,0,0,2.47,9.75A15.32,15.32,0,0,0,26.77,444.49ZM18,403.88H58v-5.26H18ZM58,362v-6L18,372.41v5.73l40,15.48v-5.73L45.83,383.5V366.68ZM41.54,382,29.8,377.55a40.14,40.14,0,0,0-7.59-2.1c2.1-.59,4.92-1.67,8.18-2.87l11.15-4.22ZM58,330.51H39.8V311.64H35.09v18.87H22.65V308.59H18v27.14H58Zm0-35H18v5.38H58Zm0-41H18v5.12H49.42L18,280.73v5.36H58V281H26.57L58,260.06Zm0-36.12v-6L18,228.79v5.79L58,250v-5.7l-12.14-4.33V223.08Zm-16.43,20L29.8,234a49.09,49.09,0,0,0-7.59-2.28,75,75,0,0,0,8.18-2.89l11.15-4.11Zm16.43-62H18v5.13H49.42L18,202.75v5.42H58V203H26.57L58,181.84Zm-31.2-9.77a23.68,23.68,0,0,0,10.92,2.47,28.28,28.28,0,0,0,10.72-2.19,16.3,16.3,0,0,0,7.63-6.2,19.33,19.33,0,0,0,2.66-10.56,16.65,16.65,0,0,0-3.55-10.65c-2.09-2.9-5.49-4.92-9.86-6l-1.36,5.28a12.74,12.74,0,0,1,7.6,4.18,11.14,11.14,0,0,1,2.64,7.62,12.21,12.21,0,0,1-2,6.78,11.23,11.23,0,0,1-5.64,4.71,25.11,25.11,0,0,1-8.89,1.46A24.86,24.86,0,0,1,30,162.3a11.43,11.43,0,0,1-6-4.4,12.88,12.88,0,0,1-2.25-7.74,10.45,10.45,0,0,1,2-6.68,12.3,12.3,0,0,1,6.36-4.06l-1.23-5.26a14.88,14.88,0,0,0-8.52,5.71,16.19,16.19,0,0,0-3.13,10.21,19,19,0,0,0,2.47,9.67A15.84,15.84,0,0,0,26.77,166.64Zm31.2-46H18V126H58Zm0-39.43H53.25v24.66H39.62V83.64H35v22.2H22.65V82.13H18v29.08H58Zm0-12.81H40.19V62.23a19.21,19.21,0,0,1,.18-2.91,8.52,8.52,0,0,1,1.13-2.51,9.27,9.27,0,0,1,2.64-2.61c1.32-1.09,3.15-2.33,5.52-3.91L58,44.94V38.2L47.11,45.3a22.19,22.19,0,0,0-5.29,4.42,11.27,11.27,0,0,0-2,3.17C39.27,49.05,38,46.16,36,44.38a9.34,9.34,0,0,0-7.18-2.76,11.18,11.18,0,0,0-6,1.58,9.19,9.19,0,0,0-3.83,4.56A23.71,23.71,0,0,0,18,55.93V73.71H58Zm-22.34,0H22.38V55.71c0-3,.6-5.13,1.82-6.66a6.12,6.12,0,0,1,4.65-1.95,7.38,7.38,0,0,1,3.68,1,8.18,8.18,0,0,1,2.38,3.1,16.27,16.27,0,0,1,.72,5.72ZM58,32.06,45.83,27.63V10.79L58,6.07V0L18,16.51v5.71L58,37.64Zm-16.43-6L29.8,21.62a62.86,62.86,0,0,0-7.59-2.22,75,75,0,0,0,8.18-2.78l11.15-4.24Zm86.71,940.47v468.69h13.58V966.53Z"/></g></g></svg>