<svg xmlns="http://www.w3.org/2000/svg" viewBox="0 0 22.68 24"><defs><style>.cls-1{isolation:isolate;}.cls-2{fill:#686868;opacity:0.5;mix-blend-mode:multiply;}.cls-3{fill:#80e3c4;}.cls-4{fill:#ffe16f;}.cls-5{fill:#009056;}.cls-6{fill:#d0eed6;}</style></defs><g class="cls-1"><g id="Capa_2" data-name="Capa 2"><g id="Capa_1-2" data-name="Capa 1"><path class="cls-2" d="M20.16,2.89A8.09,8.09,0,0,0,8.55,14.14L7.77,15a1.23,1.23,0,0,0-1.12.37L.44,21.9a1.26,1.26,0,0,0,0,1.76h0a1.25,1.25,0,0,0,1.76-.05l6.21-6.55a1.25,1.25,0,0,0,.31-1.14l.79-.83A8.09,8.09,0,0,0,20.16,2.89Z"/><rect class="cls-3" x="7.88" y="13.58" width="1.37" height="1.54" transform="translate(4.91 30.66) rotate(-136.55)"/><path class="cls-4" d="M8.63,2.53a8.09,8.09,0,1,0,11.43-.31A8.08,8.08,0,0,0,8.63,2.53Zm.89.84a6.86,6.86,0,1,1,.26,9.7A6.86,6.86,0,0,1,9.52,3.37Z"/><rect class="cls-5" x="3.11" y="13.04" width="2.49" height="11.52" rx="1.24" transform="translate(-5.43 35.44) rotate(-136.55)"/><circle class="cls-6" cx="14.5" cy="8.09" r="6.86"/></g></g></g></svg>