<svg width="30" height="30" viewBox="0 0 30 30" fill="none" xmlns="http://www.w3.org/2000/svg">
<path fill-rule="evenodd" clip-rule="evenodd" d="M0 15C0 23.2843 6.71573 30 15 30C23.2843 30 30 23.2843 30 15C30 6.71573 23.2843 0 15 0C6.71573 0 0 6.71573 0 15ZM24.4138 14.4259C24.4119 19.3427 20.4122 23.3433 15.4944 23.3453H15.4907C13.9979 23.3448 12.5311 22.9703 11.2283 22.2597L6.5 23.5L7.76538 18.878C6.98483 17.5253 6.57411 15.9909 6.57478 14.4189C6.57674 9.50106 10.578 5.5 15.4943 5.5C17.8804 5.50103 20.1199 6.42992 21.8039 8.11588C23.4879 9.80176 24.4148 12.0427 24.4138 14.4259Z" fill="white"/>
<path fill-rule="evenodd" clip-rule="evenodd" d="M8.64157 21.3809L11.4474 20.6449L11.7181 20.8055C12.8564 21.481 14.1611 21.8384 15.4914 21.8389H15.4944C19.5805 21.8389 22.9062 18.5132 22.9078 14.4254C22.9086 12.4445 22.1382 10.5819 20.7386 9.18056C19.3389 7.77925 17.4775 7.00716 15.4974 7.00647C11.4081 7.00647 8.08237 10.3319 8.08075 14.4194C8.08018 15.8202 8.47212 17.1844 9.21423 18.3647L9.39049 18.6452L8.64157 21.3809ZM19.6828 16.3462C19.8382 16.4214 19.9432 16.4721 19.988 16.5469C20.0437 16.6398 20.0437 17.0861 19.8581 17.6067C19.6723 18.1273 18.7819 18.6024 18.3537 18.6664C17.9697 18.7238 17.4839 18.7478 16.95 18.5781C16.6263 18.4754 16.2112 18.3383 15.6795 18.1086C13.5901 17.2065 12.1782 15.1814 11.9113 14.7987C11.8926 14.7719 11.8795 14.7532 11.8722 14.7434L11.8704 14.741C11.7525 14.5836 10.9622 13.5292 10.9622 12.4379C10.9622 11.4113 11.4665 10.8733 11.6986 10.6256C11.7145 10.6086 11.7291 10.593 11.7422 10.5787C11.9465 10.3556 12.188 10.2998 12.3365 10.2998C12.4851 10.2998 12.6338 10.3012 12.7637 10.3077C12.7797 10.3085 12.7964 10.3084 12.8136 10.3083C12.9435 10.3075 13.1054 10.3066 13.2651 10.6903C13.3266 10.8379 13.4165 11.0568 13.5113 11.2877C13.7031 11.7546 13.915 12.2704 13.9523 12.3451C14.008 12.4566 14.0451 12.5867 13.9708 12.7355C13.9597 12.7579 13.9494 12.7789 13.9395 12.799C13.8837 12.9129 13.8427 12.9967 13.748 13.1073C13.7107 13.1508 13.6723 13.1977 13.6338 13.2445C13.5571 13.3379 13.4804 13.4313 13.4137 13.4978C13.3021 13.6089 13.186 13.7295 13.316 13.9526C13.446 14.1757 13.8932 14.9055 14.5558 15.4965C15.268 16.1318 15.887 16.4003 16.2008 16.5363C16.262 16.5629 16.3116 16.5845 16.3481 16.6027C16.5708 16.7143 16.7009 16.6956 16.8309 16.5469C16.9609 16.3982 17.388 15.8961 17.5365 15.673C17.6851 15.45 17.8337 15.4871 18.038 15.5615C18.2423 15.6359 19.338 16.175 19.5609 16.2866C19.6044 16.3084 19.6451 16.328 19.6828 16.3462Z" fill="white"/>
</svg>
